<?xml version="1.0" encoding="UTF-8"?>
<svg width="30px" height="30px" viewBox="0 0 30 30" version="1.1" xmlns="http://www.w3.org/2000/svg" xmlns:xlink="http://www.w3.org/1999/xlink">
    <!-- Generator: Sketch 45.2 (43514) - http://www.bohemiancoding.com/sketch -->
    <title>vk</title>
    <desc>Created with Sketch.</desc>
    <defs></defs>
    <g id="design" stroke="none" stroke-width="1" fill="none" fill-rule="evenodd">
        <g id="1-index" transform="translate(-431.000000, -3546.000000)" fill-rule="nonzero" fill="#000000">
            <g id="vk" transform="translate(431.000000, 3546.000000)">
                <path d="M15,0.6 C7.047,0.6 0.6,7.047 0.6,15 C0.6,22.953 7.047,29.4 15,29.4 C22.953,29.4 29.4,22.953 29.4,15 C29.4,7.047 22.953,0.6 15,0.6 Z M20.538,16.8465 C20.538,16.8465 21.8115,18.1035 22.125,18.687 C22.134,18.699 22.1385,18.711 22.1415,18.717 C22.269,18.9315 22.299,19.098 22.236,19.2225 C22.131,19.4295 21.771,19.5315 21.648,19.5405 C21.648,19.5405 19.461,19.5405 19.398,19.5405 C19.242,19.5405 18.915,19.5 18.519,19.227 C18.2145,19.014 17.9145,18.6645 17.622,18.324 C17.1855,17.817 16.8075,17.379 16.4265,17.379 C16.3785,17.379 16.329,17.3865 16.284,17.4015 C15.996,17.4945 15.627,17.9055 15.627,19.0005 C15.627,19.3425 15.357,19.539 15.1665,19.539 C15.1665,19.539 14.184,19.539 14.136,19.539 C13.785,19.539 11.9565,19.416 10.3365,17.7075 C8.3535,15.615 6.5685,11.418 6.5535,11.379 C6.441,11.1075 6.6735,10.962 6.927,10.962 L9.1995,10.962 C9.5025,10.962 9.6015,11.1465 9.6705,11.31 C9.7515,11.5005 10.0485,12.258 10.536,13.11 C11.3265,14.499 11.811,15.063 12.1995,15.063 C12.273,15.063 12.3405,15.0435 12.408,15.009 C12.915,14.727 12.8205,12.9195 12.798,12.5445 C12.798,12.474 12.7965,11.736 12.537,11.382 C12.351,11.1255 12.0345,11.028 11.8425,10.992 C11.892,10.9185 12.003,10.806 12.141,10.7385 C12.489,10.5645 13.116,10.539 13.7385,10.539 L14.085,10.539 C14.76,10.548 14.934,10.5915 15.1785,10.653 C15.6735,10.7715 15.684,11.091 15.6405,12.1845 C15.627,12.495 15.6135,12.846 15.6135,13.26 C15.6135,13.35 15.609,13.446 15.609,13.548 C15.594,14.1045 15.576,14.736 15.969,14.9955 C16.02,15.027 16.0785,15.045 16.14,15.045 C16.2765,15.045 16.6875,15.045 17.8005,13.1355 C18.288,12.2925 18.666,11.298 18.693,11.2245 C18.7155,11.1855 18.7815,11.0655 18.8595,11.019 C18.921,10.983 19.0035,10.9755 19.0455,10.9755 L21.717,10.9755 C22.008,10.9755 22.2075,11.019 22.245,11.1315 C22.311,11.31 22.233,11.8545 21.0135,13.506 C20.808,13.779 20.6265,14.0175 20.469,14.2245 C19.3635,15.6735 19.3635,15.747 20.538,16.8465 Z" id="Shape"></path>
            </g>
        </g>
    </g>
</svg>